<?xml version="1.0" encoding="utf-8"?>
<!-- Generator: Adobe Illustrator 27.5.0, SVG Export Plug-In . SVG Version: 6.00 Build 0)  -->
<svg version="1.1" id="Capa_1" xmlns="http://www.w3.org/2000/svg" xmlns:xlink="http://www.w3.org/1999/xlink" x="0px" y="0px"
	 viewBox="0 0 2122 2122" style="enable-background:new 0 0 2122 2122;" xml:space="preserve">
<g>
	<path style="fill:#E73A3A;" d="M2005.417,1022.972c-35.662,0-71.325,0-106.987,0c45.783-96.901,73.577-195.436,73.577-291.906
		c0-279.704-226.745-506.449-506.449-506.449c-159.112,0-301.059,73.396-393.905,188.154
		c-92.845-114.758-234.794-188.154-393.906-188.154c-279.704,0-506.448,226.745-506.448,506.449
		c0,98.925,24.693,197.04,65.874,291.906c-12.285,0-24.57,0-36.855,0c-9.673,0-19.347,0-29.019,0c-16.545,0-16.572,25.712,0,25.712
		c25.821,0,51.643,0,77.465,0c218.319,466.555,822.889,848.02,822.889,848.02s588.985-403.195,814.192-848.02
		c16.052,0,32.105,0,48.157,0c23.806,0,47.611,0,71.415,0C2021.962,1048.683,2021.99,1022.972,2005.417,1022.972z"/>
	<path style="fill:#D2091F;" d="M1492.722,872.802c-31.974,64.025-63.948,128.05-95.922,192.075
		c-13.848-31.34-27.694-62.68-41.542-94.02c-2.961-6.7-5.921-13.4-8.881-20.1c-2.023-4.579-5.526-7.838-9.708-9.909
		c2.496,5.649,4.992,11.298,7.488,16.946c17.321,39.202,34.643,78.405,51.964,117.608c0.975-1.952,1.949-3.903,2.925-5.855
		c34.279-68.64,68.557-137.28,102.834-205.92C1497.993,865.775,1494.695,868.85,1492.722,872.802z"/>
	<path style="fill:#D2091F;" d="M1301.974,950.757c-11.904,24.072-23.809,48.143-35.714,72.215c1.548,0,3.095,0,4.642,0
		c13.434-27.168,26.872-54.336,40.307-81.504C1307.276,943.586,1303.98,946.7,1301.974,950.757z"/>
	<path style="fill:#D2091F;" d="M1540.634,885.779c-1.159-9.585-5.373-18.176-13.661-22.64c0.375,0.995,0.676,2.02,0.805,3.09
		c0.858,7.088,1.715,14.176,2.573,21.264c5.464,45.16,10.928,90.32,16.392,135.48c3.496,0,6.993,0,10.489,0
		c-4.675-38.643-9.351-77.286-14.026-115.929C1542.349,899.955,1541.491,892.867,1540.634,885.779z"/>
	<path style="fill:#D2091F;" d="M1144.829,1048.544c-11.036,40.462-22.069,80.925-33.104,121.388
		c-10.386,38.085-20.773,76.171-31.16,114.256c-5.113-39.71-10.226-79.421-15.341-119.131
		c-9.154-71.087-18.308-142.172-27.463-213.258c-7.92-61.501-15.839-123.002-23.76-184.503
		c-3.862-29.983-7.682-59.971-11.583-89.948l-0.17-1.318c-1.245-9.673-5.565-18.28-13.626-22.572
		c0.347,0.958,0.634,1.953,0.771,3.021l0.169,1.318c3.911,29.976,7.722,59.966,11.583,89.948
		c7.92,61.501,15.839,123.003,23.76,184.504c9.154,71.085,18.308,142.171,27.463,213.258
		c7.564,58.735,15.128,117.472,22.691,176.208c0.349,2.714,0.699,5.427,1.049,8.141c16.005-58.686,32.009-117.371,48.012-176.057
		c10.967-40.218,21.935-80.435,32.903-120.652C1151.209,1036.484,1146.623,1041.965,1144.829,1048.544z"/>
	<path style="fill:#D2091F;" d="M1683.348,1048.683c-49.302,0-98.605,0-147.907,0c-7.643,0-12.021-5.951-12.856-12.856
		c-0.857-7.087-1.715-14.176-2.572-21.264c-4.214-34.831-8.427-69.664-12.642-104.497c-33.609,67.299-67.218,134.6-100.827,201.898
		c-4.045,8.099-18.355,8.709-22.202,0c-2.96-6.699-5.921-13.399-8.881-20.099c-17.303-39.161-34.606-78.323-51.91-117.485
		c-11.199,22.645-22.398,45.29-33.597,67.936c-1.967,3.977-6.819,6.367-11.101,6.367c-33.136,0-66.273,0-99.409,0
		c-3.178,11.651-6.354,23.302-9.533,34.953c-17.587,64.489-35.173,128.978-52.76,193.468
		c-11.034,40.463-22.068,80.924-33.102,121.388c-4.135,15.162-23.524,10.005-25.252-3.417l-0.171-1.318
		c-3.911-29.976-7.722-59.965-11.583-89.948c-7.92-61.501-15.84-123.003-23.76-184.503c-9.153-71.087-18.308-142.172-27.462-213.258
		c-7.565-58.737-15.129-117.474-22.693-176.209c-0.291-2.262-0.582-4.523-0.873-6.785c-16.586,62.807-33.172,125.614-49.758,188.42
		c-11.247,42.591-22.495,85.181-33.742,127.772c-1.44,5.449-6.801,9.438-12.397,9.438c-6.856,0-13.713,0-20.571,0
		c-44.223,0-88.444,0-132.667,0c-12.427,25.982-24.853,51.964-37.279,77.946c-5.035,10.527-20.429,6.666-23.497-3.071
		c-2.586-8.211-5.173-16.421-7.76-24.632c-15.157-48.11-30.314-96.22-45.471-144.33c-16.383,29.299-32.765,58.597-49.147,87.896
		c-9.363,16.743-18.725,33.485-28.086,50.229c-5.559,9.941-20.309,7.2-23.497-3.072c-2.105-6.781-4.211-13.563-6.316-20.345
		c-11.971-38.567-23.941-77.134-35.913-115.701c-9.915,17.051-19.828,34.102-29.742,51.153
		c-6.521,11.216-13.044,22.434-19.565,33.651c-3.882,6.675-8.879,10.149-16.728,10.276c-23.786,0.386-47.61,0-71.4,0
		c-26.653,0-53.304,0-79.957,0c1.052,2.25,2.129,4.496,3.2,6.742c0.012,0.025,0.023,0.049,0.035,0.074
		c220.979,463.448,819.654,841.204,819.654,841.204s0.828-0.568,2.414-1.668c0.22-0.153,0.476-0.33,0.726-0.504
		c0.196-0.136,0.382-0.266,0.595-0.415c0.219-0.151,0.467-0.325,0.704-0.49c0.368-0.256,0.749-0.524,1.162-0.812
		c0.18-0.126,0.37-0.26,0.56-0.393c0.346-0.242,0.688-0.483,1.062-0.745c0.424-0.297,0.872-0.613,1.333-0.935
		c0.281-0.198,0.565-0.398,0.861-0.606c0.476-0.335,0.97-0.684,1.481-1.044c0.295-0.208,0.593-0.418,0.898-0.635
		c0.57-0.403,1.158-0.818,1.767-1.25c0.286-0.203,0.577-0.409,0.871-0.618c0.649-0.46,1.316-0.933,2.005-1.423
		c0.327-0.232,0.664-0.472,0.999-0.711c0.675-0.48,1.359-0.969,2.071-1.476c0.352-0.251,0.713-0.51,1.074-0.767
		c0.828-0.592,1.663-1.189,2.537-1.815c0.104-0.075,0.211-0.152,0.316-0.227c55.338-39.681,201.364-148.042,358.746-294.972
		c0.094-0.088,0.188-0.176,0.282-0.264c3.172-2.962,6.349-5.94,9.528-8.933c0.144-0.135,0.287-0.27,0.431-0.406
		c3.145-2.96,6.294-5.936,9.446-8.927c0.174-0.166,0.349-0.331,0.523-0.497c3.14-2.98,6.284-5.975,9.429-8.985
		c0.063-0.06,0.126-0.12,0.189-0.18h-0.002c-212.908,8.285-427.059-40.843-613.261-173.844
		c-123.28-88.39-222.275-196.819-297.155-318.528c10.853-19.408,21.705-38.817,32.558-58.225
		c12.128,38.495,24.256,76.992,36.385,115.488c2.586,8.211,5.173,16.421,7.76,24.632c6.135,19.475,36.925,27.194,46.994,6.141
		c11.411-23.859,22.822-47.719,34.233-71.578c41.538,0,83.075,0,124.612,0c6.858,0,13.715,0,20.571,0
		c11.19,0,21.915-7.976,24.793-18.876c11.247-42.591,22.495-85.182,33.742-127.771c11.027-41.754,22.053-83.509,33.079-125.263
		c4.997,38.806,9.995,77.612,14.993,116.418c9.153,71.086,18.308,142.171,27.463,213.258c7.92,61.501,15.839,123.002,23.76,184.503
		c3.861,29.983,7.682,59.97,11.583,89.948l0.169,1.318c1.636,12.699,8.525,23.614,22.293,25.251
		c12.512,1.489,24.779-5.832,28.211-18.417c11.034-40.462,22.069-80.925,33.103-121.388c17.587-64.489,35.173-128.978,52.76-193.467
		c2.319-8.505,4.638-17.01,6.957-25.515c29.862,0,59.725,0,89.587,0c8.565,0,18.268-4.781,22.201-12.734
		c7.291-14.742,14.581-29.484,21.872-44.226c13.811,31.258,27.622,62.518,41.433,93.776c2.961,6.699,5.921,13.4,8.882,20.1
		c7.696,17.417,36.313,16.195,44.402,0c27.391-54.85,54.783-109.7,82.175-164.55c2.446,20.22,4.892,40.439,7.339,60.659
		c0.857,7.088,1.715,14.175,2.572,21.264c1.67,13.809,10.426,25.711,25.711,25.711c49.302,0,98.605,0,147.907,0
		c61.815,0,123.63,0,185.443,0c0.003-0.005,0.006-0.011,0.008-0.016c4.667-8.525,9.209-17.068,13.618-25.627
		c0.013-0.026,0.027-0.053,0.04-0.08c1.146-2.225,2.204-4.458,3.332-6.684C1818.308,1048.683,1750.829,1048.683,1683.348,1048.683z"
		/>
	<path style="fill:#D2091F;" d="M692.864,1042.402c-4.386,9.171-8.772,18.343-13.159,27.514
		c-11.576-36.744-23.154-73.488-34.728-110.232c-2.587-8.21-5.174-16.42-7.761-24.631c-2.072-6.575-6.521-11.592-11.959-14.747
		c2.441,7.749,4.882,15.497,7.323,23.245c14.882,47.233,29.763,94.468,44.643,141.702c8.321-17.395,16.639-34.791,24.96-52.186
		C698.183,1035.253,694.765,1038.426,692.864,1042.402z"/>
	<path style="fill:#D2091F;" d="M951.745,669.194c-11.247,42.591-22.495,85.182-33.742,127.771
		c-18.021,68.24-36.041,136.479-54.062,204.719c-1.874,7.096-3.748,14.191-5.621,21.287c2.712,0,5.424,0,8.135,0
		c3.294-12.473,6.587-24.947,9.882-37.42c18.021-68.24,36.042-136.479,54.062-204.719c11.169-42.297,22.341-84.594,33.51-126.891
		C958.142,657.093,953.562,662.312,951.745,669.194z"/>
	<path style="fill:#D2091F;" d="M458.651,915.348c5.689-9.786,20.267-7.336,23.497,3.071c2.105,6.781,4.211,13.563,6.316,20.345
		c11.904,38.351,23.808,76.702,35.713,115.053c6.992-12.504,13.983-25.008,20.975-37.512c17.989-32.171,35.977-64.343,53.967-96.514
		c-3.493,2.033-6.596,5.003-8.896,9.118c-15.647,27.984-31.296,55.969-46.943,83.953
		C470.322,878.66,425.037,730.282,407.599,575.824c-12.663-88.637-25.291-187.656,1.858-274.33c0.001-0.005,0.003-0.01,0.004-0.014
		c-0.135,0.084-0.265,0.173-0.4,0.258c-7.56,4.742-14.988,9.676-22.274,14.799c-0.618,0.435-1.224,0.884-1.841,1.322
		c-2.914,2.068-5.809,4.16-8.676,6.288c-1.068,0.793-2.123,1.602-3.184,2.402c-2.406,1.815-4.798,3.643-7.169,5.499
		c-1.192,0.934-2.376,1.876-3.56,2.82c-2.23,1.777-4.445,3.573-6.643,5.386c-1.212,0.999-2.42,2.002-3.624,3.012
		c-2.181,1.834-4.343,3.693-6.494,5.564c-1.145,0.995-2.295,1.984-3.43,2.99c-2.28,2.019-4.532,4.069-6.774,6.128
		c-0.963,0.884-1.939,1.755-2.895,2.646c-3.167,2.952-6.301,5.936-9.391,8.967c-0.075,0.075-0.152,0.149-0.229,0.223
		c-11.06,10.863-21.617,22.234-31.648,34.068c-0.251,0.296-0.502,0.593-0.751,0.89c-9.883,11.714-19.242,23.883-28.046,36.469
		c-0.321,0.46-0.638,0.922-0.958,1.384c-2.621,3.775-5.193,7.587-7.713,11.435c-0.289,0.441-0.581,0.878-0.869,1.32
		c-5.535,8.507-10.818,17.192-15.844,26.042c-0.304,0.535-0.599,1.075-0.901,1.61c-2.138,3.796-4.224,7.624-6.266,11.48
		c-0.435,0.821-0.871,1.641-1.301,2.466c-2.16,4.132-4.271,8.294-6.318,12.492c-0.121,0.249-0.247,0.493-0.368,0.741
		c-2.237,4.605-4.403,9.251-6.502,13.933c-0.216,0.481-0.421,0.967-0.635,1.448c-1.776,3.996-3.498,8.023-5.175,12.073
		c-0.447,1.082-0.888,2.166-1.328,3.25c-1.513,3.73-2.98,7.482-4.407,11.255c-0.347,0.921-0.706,1.837-1.049,2.761
		c-3.449,9.293-6.626,18.717-9.536,28.258c-0.375,1.228-0.733,2.463-1.099,3.695c-1.069,3.605-2.1,7.226-3.09,10.864
		c-0.359,1.318-0.722,2.635-1.07,3.957c-1.14,4.324-2.229,8.668-3.256,13.036c-0.11,0.464-0.231,0.923-0.34,1.388
		c-1.125,4.853-2.17,9.737-3.157,14.643c-0.25,1.243-0.475,2.495-0.716,3.741c-0.712,3.682-1.387,7.377-2.017,11.087
		c-0.262,1.54-0.518,3.081-0.766,4.626c-0.607,3.777-1.165,7.57-1.688,11.375c-0.166,1.205-0.348,2.405-0.505,3.614
		c-0.646,4.961-1.223,9.943-1.722,14.948c-0.1,1-0.173,2.008-0.268,3.009c-0.378,4.032-0.713,8.076-0.996,12.135
		c-0.113,1.62-0.211,3.243-0.308,4.867c-0.221,3.647-0.398,7.305-0.541,10.973c-0.059,1.536-0.129,3.068-0.174,4.607
		c-0.152,5.097-0.252,10.207-0.252,15.341c0,98.925,24.693,197.04,65.874,291.906c52.967,0,105.936,0,158.904,0
		C416.934,987.097,437.792,951.223,458.651,915.348z"/>
	<path style="fill:#F2F2F2;" d="M2005.417,1022.972c-35.662,0-71.325,0-106.987,0c-25.74,0-51.478,0-77.217,0
		c-59.737,0-119.474,0-179.21,0c-28.257,0-56.514,0-84.771,0c-3.497,0-6.994,0-10.489,0c-5.464-45.16-10.928-90.32-16.392-135.48
		c-0.857-7.088-1.715-14.176-2.573-21.264c-0.129-1.07-0.43-2.095-0.805-3.09c-3.588-9.496-17.405-14.902-23.151-3.399
		c-0.646,1.296-1.293,2.592-1.941,3.888c-34.278,68.64-68.555,137.28-102.834,205.92c-0.975,1.952-1.95,3.903-2.925,5.855
		c-17.321-39.203-34.643-78.406-51.964-117.608c-2.496-5.648-4.992-11.297-7.488-16.946c-0.464-1.051-0.929-2.102-1.393-3.154
		c-3.837-8.684-18.183-8.125-22.201,0c-0.623,1.258-1.244,2.516-1.866,3.774c-13.435,27.168-26.872,54.336-40.307,81.504
		c-1.547,0-3.094,0-4.642,0c-32.212,0-64.425,0-96.64,0c-5.632,0-10.911,3.993-12.396,9.438c-0.067,0.245-0.134,0.491-0.201,0.736
		c-10.967,40.218-21.935,80.435-32.903,120.652c-16.003,58.686-32.007,117.371-48.012,176.057c-0.35-2.714-0.699-5.427-1.049-8.141
		c-7.563-58.736-15.127-117.473-22.691-176.208c-9.155-71.087-18.309-142.172-27.463-213.258
		c-7.921-61.501-15.84-123.003-23.76-184.504c-3.861-29.982-7.673-59.972-11.583-89.948l-0.169-1.318
		c-0.138-1.068-0.424-2.063-0.771-3.021c-4.005-11.032-20.782-14.408-24.481-0.397c-0.077,0.294-0.155,0.587-0.233,0.881
		c-11.169,42.297-22.341,84.594-33.51,126.891c-18.02,68.24-36.041,136.479-54.062,204.719c-3.295,12.473-6.588,24.947-9.882,37.42
		c-2.711,0-5.424,0-8.135,0c-40.895,0-81.789,0-122.684,0c-6.857,0-13.714,0-20.57,0c-4.236,0-9.195,2.38-11.101,6.367
		c-0.595,1.242-1.189,2.485-1.782,3.727c-8.321,17.396-16.639,34.791-24.96,52.186c-14.88-47.233-29.761-94.468-44.643-141.702
		c-2.441-7.748-4.882-15.497-7.323-23.245c-0.146-0.462-0.292-0.924-0.437-1.386c-3.226-10.24-17.922-13.04-23.497-3.071
		c-0.736,1.315-1.47,2.629-2.205,3.943c-17.99,32.171-35.978,64.343-53.967,96.514c-6.993,12.504-13.984,25.008-20.975,37.512
		c-11.905-38.351-23.809-76.703-35.713-115.053c-2.105-6.782-4.211-13.564-6.316-20.345c-3.23-10.407-17.807-12.858-23.497-3.071
		c-20.859,35.875-41.717,71.749-62.575,107.624c-52.968,0-105.937,0-158.904,0c-12.285,0-24.57,0-36.855,0
		c-9.673,0-19.347,0-29.019,0c-16.545,0-16.572,25.712,0,25.712c25.821,0,51.643,0,77.465,0c26.653,0,53.304,0,79.957,0
		c23.789,0,47.614,0.386,71.4,0c7.849-0.127,12.846-3.601,16.728-10.276c6.521-11.217,13.044-22.435,19.565-33.651
		c9.914-17.051,19.827-34.102,29.742-51.153c11.971,38.567,23.942,77.134,35.913,115.701c2.105,6.782,4.211,13.564,6.316,20.345
		c3.188,10.271,17.938,13.012,23.497,3.072c9.361-16.743,18.723-33.486,28.086-50.229c16.383-29.299,32.765-58.597,49.147-87.896
		c15.157,48.109,30.314,96.22,45.471,144.33c2.587,8.211,5.175,16.421,7.76,24.632c3.068,9.737,18.462,13.598,23.497,3.071
		c12.426-25.982,24.852-51.964,37.279-77.946c44.223,0,88.444,0,132.667,0c6.858,0,13.715,0,20.571,0
		c5.596,0,10.957-3.989,12.397-9.438c11.247-42.591,22.495-85.181,33.742-127.772c16.586-62.805,33.172-125.613,49.758-188.42
		c0.291,2.262,0.582,4.523,0.873,6.785c7.564,58.735,15.128,117.472,22.693,176.209c9.153,71.085,18.308,142.171,27.462,213.258
		c7.921,61.5,15.841,123.002,23.76,184.503c3.861,29.983,7.672,59.972,11.583,89.948l0.171,1.318
		c1.728,13.422,21.117,18.579,25.252,3.417c11.034-40.463,22.068-80.925,33.102-121.388c17.587-64.49,35.173-128.979,52.76-193.468
		c3.178-11.651,6.355-23.301,9.533-34.953c33.136,0,66.273,0,99.409,0c4.283,0,9.134-2.39,11.101-6.367
		c11.198-22.646,22.397-45.29,33.597-67.936c17.303,39.162,34.607,78.324,51.91,117.485c2.96,6.7,5.921,13.401,8.881,20.099
		c3.848,8.709,18.157,8.099,22.202,0c33.609-67.298,67.218-134.599,100.827-201.898c4.214,34.832,8.427,69.665,12.642,104.497
		c0.858,7.088,1.715,14.177,2.572,21.264c0.836,6.905,5.214,12.856,12.856,12.856c49.302,0,98.605,0,147.907,0
		c67.481,0,134.96,0,202.441,0c0.018,0,0.037,0,0.056,0c16.052,0,32.105,0,48.157,0c23.806,0,47.611,0,71.415,0
		C2021.962,1048.683,2021.99,1022.972,2005.417,1022.972z"/>
	<path style="fill:#EA4E58;" d="M1324.175,630.148c152.964-7.331,261.446-117.273,345.214-43.128
		c68.019,60.206,69.716,153.749,90.423,221.529c26.906,88.076,95.124,117.49,146.631,65.984
		c75.76-75.759,48.877-356.802-139.299-496.102c-290.807-215.272-591.412-111.604-632.957,63.54
		C1115.732,519.77,1178.158,637.147,1324.175,630.148z"/>
</g>
</svg>
