<svg width="1854" height="2634" viewBox="0 0 1854 2634" fill="none" xmlns="http://www.w3.org/2000/svg">
<circle cx="927" cy="927" r="927" fill="#363653"/>
<path d="M1049.86 1158.5C1049.86 1189.5 1044.36 1212.5 1033.36 1227.5C1022.36 1242.5 1004.86 1257 980.859 1271C966.859 1279 949.359 1287 928.359 1295C907.359 1302 884.359 1308 859.359 1313C834.359 1319 807.859 1323.5 779.859 1326.5C752.859 1329.5 725.859 1331 698.859 1331C626.859 1331 559.359 1321.5 496.359 1302.5C433.359 1282.5 378.359 1253 331.359 1214C285.359 1174 248.859 1124.5 221.859 1065.5C194.859 1006.5 181.359 938 181.359 860C181.359 778 195.859 706.5 224.859 645.5C254.859 584.5 293.859 534 341.859 494C390.859 453 446.359 422.5 508.359 402.5C571.359 382.5 635.859 372.5 701.859 372.5C796.859 372.5 871.859 388 926.859 419C982.859 449 1010.86 488.5 1010.86 537.5C1010.86 563.5 1004.36 586 991.359 605C978.359 624 963.359 639 946.359 650C921.359 635 889.859 620.5 851.859 606.5C814.859 591.5 772.859 584 725.859 584C641.859 584 574.859 608 524.859 656C475.859 704 451.359 770.5 451.359 855.5C451.359 901.5 457.859 941.5 470.859 975.5C484.859 1008.5 503.359 1036 526.359 1058C549.359 1079 575.859 1095 605.859 1106C635.859 1116 667.859 1121 701.859 1121C723.859 1121 743.359 1119 760.359 1115C777.359 1111 790.359 1106.5 799.359 1101.5V960.5H638.859C632.859 949.5 626.859 935 620.859 917C615.859 899 613.359 880 613.359 860C613.359 824 621.359 798 637.359 782C654.359 766 675.859 758 701.859 758H955.359C985.359 758 1008.36 766.5 1024.36 783.5C1041.36 799.5 1049.86 822.5 1049.86 852.5V1158.5ZM1457.56 1056.5C1457.56 1082.5 1465.56 1101 1481.56 1112C1498.56 1123 1522.06 1128.5 1552.06 1128.5C1567.06 1128.5 1582.56 1127.5 1598.56 1125.5C1614.56 1122.5 1628.56 1119 1640.56 1115C1649.56 1126 1657.06 1138.5 1663.06 1152.5C1670.06 1165.5 1673.56 1181.5 1673.56 1200.5C1673.56 1238.5 1659.06 1269.5 1630.06 1293.5C1602.06 1317.5 1552.06 1329.5 1480.06 1329.5C1392.06 1329.5 1324.06 1309.5 1276.06 1269.5C1229.06 1229.5 1205.56 1164.5 1205.56 1074.5V432.5C1216.56 429.5 1232.06 426.5 1252.06 423.5C1273.06 419.5 1295.06 417.5 1318.06 417.5C1362.06 417.5 1396.06 425.5 1420.06 441.5C1445.06 456.5 1457.56 489 1457.56 539V635H1654.06C1660.06 646 1665.56 660 1670.56 677C1676.56 693 1679.56 711 1679.56 731C1679.56 766 1671.56 791.5 1655.56 807.5C1640.56 822.5 1620.06 830 1594.06 830H1457.56V1056.5Z" fill="white"/>
<path d="M164.925 2281.35C145.858 2274.85 128.525 2268.35 112.925 2261.85C97.3251 2254.92 83.8917 2246.68 72.6251 2237.15C61.3584 2227.62 52.4751 2216.35 45.9751 2203.35C39.9084 2189.92 36.8751 2173.67 36.8751 2154.6C36.8751 2117.77 50.9584 2088.3 79.1251 2066.2C107.725 2044.1 147.592 2033.05 198.725 2033.05C217.358 2033.05 234.692 2034.35 250.725 2036.95C266.758 2039.55 280.408 2043.67 291.675 2049.3C303.375 2054.5 312.475 2061.43 318.975 2070.1C325.475 2078.33 328.725 2088.08 328.725 2099.35C328.725 2110.62 326.125 2120.37 320.925 2128.6C315.725 2136.4 309.442 2143.12 302.075 2148.75C292.542 2142.68 279.758 2137.48 263.725 2133.15C247.692 2128.38 230.142 2126 211.075 2126C191.575 2126 177.275 2128.82 168.175 2134.45C159.075 2139.65 154.525 2146.37 154.525 2154.6C154.525 2161.1 157.342 2166.52 162.975 2170.85C168.608 2174.75 177.058 2178.43 188.325 2181.9L222.775 2192.95C263.508 2205.95 294.708 2222.63 316.375 2243C338.475 2262.93 349.525 2290.23 349.525 2324.9C349.525 2361.73 335.008 2391.63 305.975 2414.6C276.942 2437.13 234.258 2448.4 177.925 2448.4C157.992 2448.4 139.358 2446.67 122.025 2443.2C105.125 2440.17 90.1751 2435.62 77.1751 2429.55C64.6084 2423.05 54.6417 2415.25 47.2751 2406.15C40.3417 2396.62 36.8751 2385.78 36.8751 2373.65C36.8751 2361.08 40.5584 2350.47 47.9251 2341.8C55.2917 2332.7 63.3084 2325.77 71.9751 2321C84.1084 2330.53 98.8417 2338.77 116.175 2345.7C133.942 2352.63 153.225 2356.1 174.025 2356.1C195.258 2356.1 210.208 2352.85 218.875 2346.35C227.542 2339.85 231.875 2332.27 231.875 2323.6C231.875 2314.93 228.408 2308.43 221.475 2304.1C214.542 2299.33 204.792 2294.78 192.225 2290.45L164.925 2281.35ZM543.834 2367.8C551.2 2367.8 559.217 2367.15 567.884 2365.85C576.984 2364.12 583.7 2361.95 588.034 2359.35V2307.35L541.234 2311.25C529.1 2312.12 519.134 2314.72 511.334 2319.05C503.534 2323.38 499.634 2329.88 499.634 2338.55C499.634 2347.22 502.884 2354.37 509.384 2360C516.317 2365.2 527.8 2367.8 543.834 2367.8ZM538.634 2112.35C562.034 2112.35 583.267 2114.73 602.334 2119.5C621.834 2124.27 638.3 2131.63 651.734 2141.6C665.6 2151.13 676.217 2163.48 683.584 2178.65C690.95 2193.38 694.634 2210.93 694.634 2231.3V2376.9C694.634 2388.17 691.384 2397.48 684.884 2404.85C678.817 2411.78 671.45 2417.85 662.784 2423.05C634.617 2439.95 594.967 2448.4 543.834 2448.4C520.867 2448.4 500.067 2446.23 481.434 2441.9C463.234 2437.57 447.417 2431.07 433.984 2422.4C420.984 2413.73 410.8 2402.68 403.434 2389.25C396.5 2375.82 393.034 2360.22 393.034 2342.45C393.034 2312.55 401.917 2289.58 419.684 2273.55C437.45 2257.52 464.967 2247.55 502.234 2243.65L587.384 2234.55V2230C587.384 2217.43 581.75 2208.55 570.484 2203.35C559.65 2197.72 543.834 2194.9 523.034 2194.9C506.567 2194.9 490.534 2196.63 474.934 2200.1C459.334 2203.57 445.25 2207.9 432.684 2213.1C427.05 2209.2 422.284 2203.35 418.384 2195.55C414.484 2187.32 412.534 2178.87 412.534 2170.2C412.534 2158.93 415.134 2150.05 420.334 2143.55C425.967 2136.62 434.417 2130.77 445.684 2126C458.25 2121.23 472.984 2117.77 489.884 2115.6C507.217 2113.43 523.467 2112.35 538.634 2112.35ZM761.801 2126.65C766.134 2125.35 772.851 2124.05 781.951 2122.75C791.484 2121.45 801.234 2120.8 811.201 2120.8C820.734 2120.8 829.184 2121.45 836.551 2122.75C844.351 2124.05 850.851 2126.65 856.051 2130.55C861.251 2134.45 865.151 2139.87 867.751 2146.8C870.784 2153.3 872.301 2161.97 872.301 2172.8V2312.55C872.301 2330.32 876.634 2343.1 885.301 2350.9C893.968 2358.27 906.534 2361.95 923.001 2361.95C932.968 2361.95 940.984 2361.08 947.051 2359.35C953.551 2357.62 958.534 2355.88 962.001 2354.15V2126.65C966.334 2125.35 973.051 2124.05 982.151 2122.75C991.684 2121.45 1001.43 2120.8 1011.4 2120.8C1020.93 2120.8 1029.38 2121.45 1036.75 2122.75C1044.55 2124.05 1051.05 2126.65 1056.25 2130.55C1061.45 2134.45 1065.35 2139.87 1067.95 2146.8C1070.98 2153.3 1072.5 2161.97 1072.5 2172.8V2370.4C1072.5 2392.07 1063.4 2408.32 1045.2 2419.15C1030.03 2428.68 1011.83 2435.83 990.601 2440.6C969.801 2445.8 947.051 2448.4 922.351 2448.4C898.951 2448.4 877.284 2445.8 857.351 2440.6C837.851 2435.4 820.951 2427.38 806.651 2416.55C792.351 2405.72 781.301 2391.85 773.501 2374.95C765.701 2357.62 761.801 2336.82 761.801 2312.55V2126.65ZM937.951 1954.4C960.484 1954.4 976.734 1958.73 986.701 1967.4C997.101 1976.07 1002.3 1986.47 1002.3 1998.6C1002.3 2009.87 999.268 2019.4 993.201 2027.2C987.134 2034.57 977.168 2041.93 963.301 2049.3L879.451 2093.5C866.451 2092.2 855.401 2087 846.301 2077.9C837.201 2068.8 832.651 2059.05 832.651 2048.65C832.651 2043.45 833.951 2038.25 836.551 2033.05C839.151 2027.85 843.484 2023.08 849.551 2018.75L937.951 1954.4ZM1126.07 2280.05C1126.07 2251.45 1130.41 2226.75 1139.07 2205.95C1147.74 2184.72 1159.66 2167.17 1174.82 2153.3C1190.42 2139.43 1208.41 2129.25 1228.77 2122.75C1249.57 2115.82 1271.89 2112.35 1295.72 2112.35C1304.39 2112.35 1312.84 2113.22 1321.07 2114.95C1329.31 2116.25 1336.02 2117.98 1341.22 2120.15V2014.85C1345.56 2013.55 1352.49 2012.25 1362.02 2010.95C1371.56 2009.22 1381.31 2008.35 1391.27 2008.35C1400.81 2008.35 1409.26 2009 1416.62 2010.3C1424.42 2011.6 1430.92 2014.2 1436.12 2018.1C1441.32 2022 1445.22 2027.42 1447.82 2034.35C1450.42 2040.85 1451.72 2049.52 1451.72 2060.35V2368.45C1451.72 2388.82 1442.19 2405.07 1423.12 2417.2C1410.56 2425.43 1394.31 2432.58 1374.37 2438.65C1354.44 2445.15 1331.47 2448.4 1305.47 2448.4C1277.31 2448.4 1251.96 2444.5 1229.42 2436.7C1207.32 2428.9 1188.47 2417.63 1172.87 2402.9C1157.71 2388.17 1146.01 2370.62 1137.77 2350.25C1129.97 2329.45 1126.07 2306.05 1126.07 2280.05ZM1310.67 2198.8C1287.27 2198.8 1269.29 2205.52 1256.72 2218.95C1244.16 2232.38 1237.87 2252.75 1237.87 2280.05C1237.87 2306.92 1243.72 2327.28 1255.42 2341.15C1267.12 2354.58 1284.02 2361.3 1306.12 2361.3C1313.92 2361.3 1320.86 2360.22 1326.92 2358.05C1333.42 2355.45 1338.41 2352.63 1341.87 2349.6V2206.6C1333.21 2201.4 1322.81 2198.8 1310.67 2198.8ZM1687.24 2448.4C1661.67 2448.4 1637.84 2444.93 1615.74 2438C1594.07 2430.63 1575 2419.8 1558.54 2405.5C1542.5 2391.2 1529.72 2373.22 1520.19 2351.55C1511.09 2329.88 1506.54 2304.53 1506.54 2275.5C1506.54 2246.9 1511.09 2222.42 1520.19 2202.05C1529.72 2181.25 1542.07 2164.35 1557.24 2151.35C1572.4 2137.92 1589.74 2128.17 1609.24 2122.1C1628.74 2115.6 1648.67 2112.35 1669.04 2112.35C1692 2112.35 1712.8 2115.82 1731.44 2122.75C1750.5 2129.68 1766.75 2139.22 1780.19 2151.35C1794.05 2163.48 1804.67 2178 1812.04 2194.9C1819.84 2211.8 1823.74 2230.22 1823.74 2250.15C1823.74 2264.88 1819.62 2276.15 1811.39 2283.95C1803.15 2291.75 1791.67 2296.73 1776.94 2298.9L1616.39 2322.95C1621.15 2337.25 1630.9 2348.08 1645.64 2355.45C1660.37 2362.38 1677.27 2365.85 1696.34 2365.85C1714.1 2365.85 1730.79 2363.68 1746.39 2359.35C1762.42 2354.58 1775.42 2349.17 1785.39 2343.1C1792.32 2347.43 1798.17 2353.5 1802.94 2361.3C1807.7 2369.1 1810.09 2377.33 1810.09 2386C1810.09 2405.5 1800.99 2420.02 1782.79 2429.55C1768.92 2436.92 1753.32 2441.9 1735.99 2444.5C1718.65 2447.1 1702.4 2448.4 1687.24 2448.4ZM1669.04 2192.95C1658.64 2192.95 1649.54 2194.68 1641.74 2198.15C1634.37 2201.62 1628.3 2206.17 1623.54 2211.8C1618.77 2217 1615.09 2223.07 1612.49 2230C1610.32 2236.5 1609.02 2243.22 1608.59 2250.15L1719.74 2231.95C1718.44 2223.28 1713.67 2214.62 1705.44 2205.95C1697.2 2197.28 1685.07 2192.95 1669.04 2192.95Z" fill="white"/>
<path d="M1050.5 829V1104.5C1050.5 1104.5 988 1154 920.5 1152.5C852.999 1151 798 1104.5 798 1104.5V961.5H641C636.833 956 626.8 938.5 620 912.5C613.2 886.5 612 876 612 853C615 827 615.5 805.7 637.5 782.5C659.5 759.3 679.479 758 695 758C772.5 758 942.5 753 988 760.5C1029.06 767.269 1046.5 810.334 1050.5 829Z" fill="#11BC76"/>
<path d="M1206 765.151V433.578C1206 433.578 1262.26 411.573 1329.47 413.073C1356.72 413.682 1405.68 427.497 1424.07 442.08C1451.04 463.469 1457.92 494.091 1457.92 494.091V633.655H1656.08C1660.23 639.157 1670.22 656.66 1676.99 682.666C1683.76 708.672 1683.46 733.844 1682.46 743.18C1683.96 756.682 1677.98 786.456 1656.08 809.661C1634.17 832.866 1599.84 831.666 1584.38 831.666C1507.21 831.666 1293.63 839.168 1248.32 831.666C1207.43 824.895 1206 801.5 1206 765.151Z" fill="#11BC76" stroke="#11BC76" stroke-width="3"/>
</svg>
