<svg width="1854" height="1854" viewBox="0 0 1854 1854" fill="none" xmlns="http://www.w3.org/2000/svg">
<circle cx="927" cy="927" r="927" fill="#363653"/>
<path d="M1049.86 1158.5C1049.86 1189.5 1044.36 1212.5 1033.36 1227.5C1022.36 1242.5 1004.86 1257 980.859 1271C966.859 1279 949.359 1287 928.359 1295C907.359 1302 884.359 1308 859.359 1313C834.359 1319 807.859 1323.5 779.859 1326.5C752.859 1329.5 725.859 1331 698.859 1331C626.859 1331 559.359 1321.5 496.359 1302.5C433.359 1282.5 378.359 1253 331.359 1214C285.359 1174 248.859 1124.5 221.859 1065.5C194.859 1006.5 181.359 938 181.359 860C181.359 778 195.859 706.5 224.859 645.5C254.859 584.5 293.859 534 341.859 494C390.859 453 446.359 422.5 508.359 402.5C571.359 382.5 635.859 372.5 701.859 372.5C796.859 372.5 871.859 388 926.859 419C982.859 449 1010.86 488.5 1010.86 537.5C1010.86 563.5 1004.36 586 991.359 605C978.359 624 963.359 639 946.359 650C921.359 635 889.859 620.5 851.859 606.5C814.859 591.5 772.859 584 725.859 584C641.859 584 574.859 608 524.859 656C475.859 704 451.359 770.5 451.359 855.5C451.359 901.5 457.859 941.5 470.859 975.5C484.859 1008.5 503.359 1036 526.359 1058C549.359 1079 575.859 1095 605.859 1106C635.859 1116 667.859 1121 701.859 1121C723.859 1121 743.359 1119 760.359 1115C777.359 1111 790.359 1106.5 799.359 1101.5V960.5H638.859C632.859 949.5 626.859 935 620.859 917C615.859 899 613.359 880 613.359 860C613.359 824 621.359 798 637.359 782C654.359 766 675.859 758 701.859 758H955.359C985.359 758 1008.36 766.5 1024.36 783.5C1041.36 799.5 1049.86 822.5 1049.86 852.5V1158.5ZM1457.56 1056.5C1457.56 1082.5 1465.56 1101 1481.56 1112C1498.56 1123 1522.06 1128.5 1552.06 1128.5C1567.06 1128.5 1582.56 1127.5 1598.56 1125.5C1614.56 1122.5 1628.56 1119 1640.56 1115C1649.56 1126 1657.06 1138.5 1663.06 1152.5C1670.06 1165.5 1673.56 1181.5 1673.56 1200.5C1673.56 1238.5 1659.06 1269.5 1630.06 1293.5C1602.06 1317.5 1552.06 1329.5 1480.06 1329.5C1392.06 1329.5 1324.06 1309.5 1276.06 1269.5C1229.06 1229.5 1205.56 1164.5 1205.56 1074.5V432.5C1216.56 429.5 1232.06 426.5 1252.06 423.5C1273.06 419.5 1295.06 417.5 1318.06 417.5C1362.06 417.5 1396.06 425.5 1420.06 441.5C1445.06 456.5 1457.56 489 1457.56 539V635H1654.06C1660.06 646 1665.56 660 1670.56 677C1676.56 693 1679.56 711 1679.56 731C1679.56 766 1671.56 791.5 1655.56 807.5C1640.56 822.5 1620.06 830 1594.06 830H1457.56V1056.5Z" fill="white"/>
<path d="M1050.5 829V1104.5C1050.5 1104.5 988 1154 920.5 1152.5C852.999 1151 798 1104.5 798 1104.5V961.5H641C636.833 956 626.8 938.5 620 912.5C613.2 886.5 612 876 612 853C615 827 615.5 805.7 637.5 782.5C659.5 759.3 679.479 758 695 758C772.5 758 942.5 753 988 760.5C1029.06 767.269 1046.5 810.334 1050.5 829Z" fill="#11BC76"/>
<path d="M1206 765.151V433.578C1206 433.578 1262.26 411.573 1329.47 413.073C1356.72 413.682 1405.68 427.497 1424.07 442.08C1451.04 463.469 1457.92 494.091 1457.92 494.091V633.655H1656.08C1660.23 639.157 1670.22 656.66 1676.99 682.666C1683.76 708.672 1683.46 733.844 1682.46 743.18C1683.96 756.682 1677.98 786.456 1656.08 809.661C1634.17 832.866 1599.84 831.666 1584.38 831.666C1507.21 831.666 1293.63 839.168 1248.32 831.666C1207.43 824.895 1206 801.5 1206 765.151Z" fill="#11BC76" stroke="#11BC76" stroke-width="3"/>
</svg>
